<?xml version="1.0" encoding="UTF-8" standalone="no"?>
<svg
   xmlns:dc="http://purl.org/dc/elements/1.1/"
   xmlns:cc="http://creativecommons.org/ns#"
   xmlns:rdf="http://www.w3.org/1999/02/22-rdf-syntax-ns#"
   xmlns:svg="http://www.w3.org/2000/svg"
   xmlns="http://www.w3.org/2000/svg"
   xmlns:sodipodi="http://sodipodi.sourceforge.net/DTD/sodipodi-0.dtd"
   xmlns:inkscape="http://www.inkscape.org/namespaces/inkscape"
   version="1.1"
   id="svg2"
   xml:space="preserve"
   width="400px"
   height="100.0px"
   viewBox="0 0 908.18665 127.16"
   
   sodipodi:docname="2021_CT_LOGO_SWOOSH_NAVY_FILLED_STRAIGHT_RGB.eps"><metadata
     id="metadata8"><rdf:RDF><cc:Work
         rdf:about=""><dc:format>image/svg+xml</dc:format><dc:type
           rdf:resource="http://purl.org/dc/dcmitype/StillImage" /></cc:Work></rdf:RDF></metadata><defs
     id="defs6" /><sodipodi:namedview
     pagecolor="#ffffff"
     bordercolor="#666666"
     borderopacity="1"
     objecttolerance="10"
     gridtolerance="10"
     guidetolerance="10"
     inkscape:pageopacity="0"
     inkscape:pageshadow="2"
     inkscape:window-width="640"
     inkscape:window-height="480"
     id="namedview4" /><g
     id="g10"
     inkscape:groupmode="layer"
     inkscape:label="ink_ext_XXXXXX"
     transform="matrix(1.3333333,0,0,-1.3333333,0,127.16)"><g
       id="g12"
       transform="scale(0.1)"><path
         d="M 336.875,629.379 C 298.246,611.84 247.141,602.805 205.535,602.805 105.277,602.805 0,664.965 0,775.238 0,885.512 98.2617,952.18 200.52,952.18 c 55.144,0 109.269,-13.52 153.894,-46.114 l -28.062,-59.652 c -24.598,43.625 -69.707,62.672 -117.797,62.672 -73.707,0 -118.3284,-59.164 -118.3284,-133.848 0,-81.191 61.1794,-131.32 127.3394,-131.32 47.114,0 101.239,26.555 133.829,60.145 l -14.52,-74.684"
         style="fill:#001F49;fill-opacity:1;fill-rule:nonzero;stroke:none"
         id="path14" /><path
         d="M 731.301,608.82 730.77,757.699 H 585.441 V 608.82 h -80.722 l 0.492,337.344 h 80.23 V 800.305 H 730.77 v 145.859 h 81.21 V 608.82 h -80.679"
         style="fill:#001F49;fill-opacity:1;fill-rule:nonzero;stroke:none"
         id="path16" /><path
         d="m 1117.2,839.398 -37.6,-79.699 h 75.7 z M 1224.48,608.82 c -15.05,35.098 -31.08,70.176 -46.62,104.254 h -119.8 L 1007.44,608.82 h -55.143 l 167.433,337.852 h 31.57 c 18.52,-48.129 43.61,-93.242 66.65,-139.352 32.59,-66.672 65.18,-132.32 98.75,-198.5 h -92.22"
         style="fill:#001F49;fill-opacity:1;fill-rule:nonzero;stroke:none"
         id="path18" /><path
         d="m 1665.08,608.82 c -30.59,43.625 -86.23,137.844 -91.25,145.86 -8.52,0 -16.56,0.511 -24.55,2.019 l 14.52,21.559 c 35.61,0 64.65,25.555 64.65,66.668 0,46.601 -42.58,59.144 -74.68,59.144 h -11.02 V 608.82 h -80.72 v 337.344 h 110.29 c 58.17,0 132.85,-24.555 132.85,-95.242 0,-45.602 -27.57,-72.176 -63.67,-85.695 41.12,-55.149 81.21,-106.278 118.29,-156.407 h -94.71"
         style="fill:#001F49;fill-opacity:1;fill-rule:nonzero;stroke:none"
         id="path20" /><path
         d="m 1905.12,608.82 c 0,112.293 0,225.071 0,337.344 h 81.7 V 650.426 c 16.56,-0.492 33.08,-0.492 49.64,-0.492 41.07,0 82.19,0.492 122.28,6.507 l -19.53,-47.621 h -234.09"
         style="fill:#001F49;fill-opacity:1;fill-rule:nonzero;stroke:none"
         id="path22" /><path
         d="m 2304.08,608.82 v 337.344 h 206.51 l 22.07,-47.113 c -34.1,4.508 -68.69,6.019 -102.75,6.019 H 2384.8 V 800.305 h 15.01 c 33.61,0 67.66,0.508 101.27,4.015 l -1.5,-48.129 c -30.11,1.508 -60.66,2.508 -90.76,2.508 -7.99,0 -16.52,0 -24.55,0 V 650.426 l 57.63,-0.492 c 38.1,-0.508 76.19,1.492 114.82,6.507 l -20.07,-47.621 h -232.57"
         style="fill:#001F49;fill-opacity:1;fill-rule:nonzero;stroke:none"
         id="path24" /><path
         d="m 2706.05,706.059 c 30.06,-36.586 70.69,-59.633 101.77,-59.633 26.55,0 43.11,17.539 43.11,43.094 0,59.164 -157.4,50.128 -157.4,162.91 0,62.652 52.12,98.75 108.25,98.75 36.1,0 79.21,-10.524 107.27,-32.571 l -30.59,-58.652 c -16.52,27.063 -43.07,48.621 -76.68,48.621 -18.03,0 -36.1,-11.523 -36.1,-34.082 0,-67.668 160.91,-52.637 160.91,-166.926 0,-66.16 -58.12,-104.765 -127.3,-104.765 -47.11,0 -82.72,13.543 -120.33,42.113 l 27.09,61.141"
         style="fill:#001F49;fill-opacity:1;fill-rule:nonzero;stroke:none"
         id="path26" /><path
         d="m 3410.27,608.82 v 296.25 h -127.84 l 12.53,41.094 h 325.33 l -0.49,-41.094 h -128.32 c 0,-99.261 0,-296.25 0,-296.25 h -81.21"
         style="fill:#001F49;fill-opacity:1;fill-rule:nonzero;stroke:none"
         id="path28" /><path
         d="m 3876.36,608.82 c 0.53,31.082 0.53,62.16 0.53,93.243 0,16.031 0,32.57 0,48.621 -47.15,65.16 -93.77,130.828 -141.37,195.48 h 90.71 c 34.59,-49.109 70.2,-98.238 105.28,-146.859 l 117.79,146.859 h 52.13 L 3957.57,768.73 V 608.82 h -81.21"
         style="fill:#001F49;fill-opacity:1;fill-rule:nonzero;stroke:none"
         id="path30" /><path
         d="m 4435.74,608.82 c -30.6,43.625 -86.23,137.844 -91.25,145.86 -8.52,0 -16.56,0.511 -24.55,2.019 l 14.52,21.559 c 35.61,0 64.65,25.555 64.65,66.668 0,46.601 -42.59,59.144 -74.69,59.144 h -11.01 V 608.82 h -80.72 v 337.344 h 110.29 c 58.17,0 132.85,-24.555 132.85,-95.242 0,-45.602 -27.57,-72.176 -63.67,-85.695 41.12,-55.149 81.21,-106.278 118.29,-156.407 h -94.71"
         style="fill:#001F49;fill-opacity:1;fill-rule:nonzero;stroke:none"
         id="path32" /><path
         d="m 5002.09,604.313 c -18.03,48.621 -41.08,96.242 -60.66,144.371 -12.52,31.57 -24.55,62.652 -36.58,94.222 L 4802.59,604.313 h -30.55 c -20.56,56.148 -47.15,110.273 -70.69,166.417 -24.55,58.145 -46.62,117.29 -70.68,175.942 h 85.2 c 32.1,-77.192 62.65,-155.383 93.25,-233.086 l 97.73,240.102 h 36.58 l 95.78,-242.61 100.74,235.594 h 47.11 L 5038.68,604.313 h -36.59"
         style="fill:#001F49;fill-opacity:1;fill-rule:nonzero;stroke:none"
         id="path34" /><path
         d="m 5547.39,608.82 -0.49,148.879 H 5401.53 V 608.82 h -80.68 l 0.49,337.344 h 80.19 V 800.305 h 145.37 v 145.859 h 81.21 V 608.82 h -80.72"
         style="fill:#001F49;fill-opacity:1;fill-rule:nonzero;stroke:none"
         id="path36" /><path
         d="m 5798.49,608.82 v 337.344 h 81.7 V 608.82 h -81.7"
         style="fill:#001F49;fill-opacity:1;fill-rule:nonzero;stroke:none"
         id="path38" /><path
         d="m 6153.35,608.82 v 296.25 h -127.79 l 12.52,41.094 h 325.29 l -0.49,-41.094 h -128.32 c 0,-99.261 0,-296.25 0,-296.25 h -81.21"
         style="fill:#001F49;fill-opacity:1;fill-rule:nonzero;stroke:none"
         id="path40" /><path
         d="m 6601.41,608.82 v 296.25 h -127.79 l 12.53,41.094 h 325.29 l -0.49,-41.094 h -128.32 c 0,-99.261 0,-296.25 0,-296.25 h -81.22"
         style="fill:#001F49;fill-opacity:1;fill-rule:nonzero;stroke:none"
         id="path42" /><path
         d="m 1941.02,0 c -13.57,0 -23.84,2.65625 -30.78,7.95703 C 1903.3,13.2617 1899.83,21.6094 1899.83,33 v 13.5742 h 18.02 V 34.875 c 0,-6.2422 1.95,-10.7656 5.85,-13.5742 3.9,-2.8125 10.3,-4.2149 19.19,-4.2149 4.53,0 8.23,0.3907 11.12,1.1719 2.88,0.7735 5.19,2.1406 6.9,4.0938 1.72,1.9492 2.89,4.6015 3.52,7.957 0.62,3.3516 0.93,7.5273 0.93,12.5234 v 57.574 h 18.02 V 38.1523 c 0,-13.7343 -3.31,-23.5234 -9.94,-29.37496 C 1966.8,2.92578 1956,0 1941.02,0"
         style="fill:#001F49;fill-opacity:1;fill-rule:nonzero;stroke:none"
         id="path44" /><path
         d="M 2048.22,3.04297 V 100.641 h 91.75 V 83.5547 h -73.73 v -20.125 h 48.44 V 46.3438 h -48.44 V 19.8945 h 77.7 V 3.04297 h -95.72"
         style="fill:#001F49;fill-opacity:1;fill-rule:nonzero;stroke:none"
         id="path46" /><path
         d="m 2275.72,83.5547 h -48.69 V 61.3242 h 48.69 c 9.2,0 13.81,3.7422 13.81,11.2305 0,3.4336 -1.1,6.125 -3.28,8.0781 -2.19,1.9453 -5.7,2.9219 -10.53,2.9219 z m 16.62,-80.51173 -26.69,41.19533 h -38.62 V 3.04297 h -18.02 V 100.406 h 66.71 c 9.98,0 17.86,-2.4177 23.64,-7.2497 5.77,-4.8438 8.65,-11.7071 8.65,-20.6016 0,-6.5508 -1.95,-12.3633 -5.84,-17.4375 -3.91,-5.0703 -9.36,-8.4649 -16.39,-10.1797 l 26.68,-41.89453 h -20.12"
         style="fill:#001F49;fill-opacity:1;fill-rule:nonzero;stroke:none"
         id="path48" /><path
         d="M 2460.16,3.04297 V 66.9375 l -34.41,-49.8516 -34.4,49.8516 V 3.04297 h -18.26 V 100.641 h 14.74 l 37.92,-53.8324 37.92,53.8324 h 14.74 V 3.04297 h -18.25"
         style="fill:#001F49;fill-opacity:1;fill-rule:nonzero;stroke:none"
         id="path50" /><path
         d="M 2592.86,52.4297 V 3.04297 h -17.78 V 52.1953 l -45.41,48.4457 h 23.88 l 30.41,-32.5316 29.97,32.5316 h 24.58 l -45.65,-48.2113"
         style="fill:#001F49;fill-opacity:1;fill-rule:nonzero;stroke:none"
         id="path52" /><path
         d="M 2770.28,3.04297 2713.16,66.2383 V 3.04297 h -17.79 V 100.641 h 10.07 l 57.11,-63.4262 v 63.4262 h 17.79 V 3.04297 h -10.06"
         style="fill:#001F49;fill-opacity:1;fill-rule:nonzero;stroke:none"
         id="path54" /><path
         d="m 3007.36,0 c -9.05,0 -18.22,1.32813 -27.5,3.98047 -9.29,2.64844 -18.22,6.70313 -26.8,12.17183 l 9.13,15.4454 c 7.48,-4.9961 14.98,-8.6602 22.47,-11.0039 7.49,-2.336 14.51,-3.5079 21.06,-3.5079 8.74,0 15.34,1.6368 19.78,4.9141 4.45,3.2773 6.67,7.1758 6.67,11.7031 0,4.6836 -2.14,8.1914 -6.44,10.5352 -4.29,2.3359 -11.35,3.6601 -21.18,3.9765 -7.18,0.1563 -13.66,0.586 -19.43,1.2891 -5.77,0.6992 -10.68,1.9844 -14.74,3.8633 -4.06,1.8711 -7.18,4.5234 -9.36,7.957 -2.19,3.4258 -3.28,7.875 -3.28,13.3438 0,8.4218 3.67,15.289 11,20.5937 7.33,5.3013 17.24,7.9573 29.72,7.9573 8.43,0 16.51,-1.211 24.23,-3.6292 7.73,-2.4179 15.57,-6.125 23.53,-11.121 l -9.14,-15.2071 c -6.7,4.5235 -13.42,7.836 -20.12,9.9453 -6.71,2.1055 -12.95,3.1602 -18.72,3.1602 -7.5,0 -13.04,-1.1719 -16.62,-3.5117 -3.59,-2.3438 -5.39,-5.0703 -5.39,-8.1875 0,-3.5977 2.03,-6.1328 6.08,-7.6133 4.06,-1.4844 11.24,-2.2227 21.54,-2.2227 15.29,0 26.96,-2.6523 35,-7.957 8.02,-5.3047 12.04,-13.3437 12.04,-24.1094 0,-4.5234 -1.02,-8.7773 -3.04,-12.75 -2.02,-3.9843 -4.91,-7.457 -8.66,-10.42185 -3.74,-2.96484 -8.31,-5.30469 -13.69,-7.01953 C 3020.11,0.863281 3014.06,0 3007.36,0"
         style="fill:#001F49;fill-opacity:1;fill-rule:nonzero;stroke:none"
         id="path56" /><path
         d="M 3159.98,84.0273 V 3.04297 h -18.03 V 84.0273 h -39.78 v 16.6137 h 97.6 V 84.0273 h -39.79"
         style="fill:#001F49;fill-opacity:1;fill-rule:nonzero;stroke:none"
         id="path58" /><path
         d="m 3328.72,83.5547 h -48.69 V 61.3242 h 48.69 c 9.2,0 13.81,3.7422 13.81,11.2305 0,3.4336 -1.1,6.125 -3.28,8.0781 -2.19,1.9453 -5.7,2.9219 -10.53,2.9219 z m 16.62,-80.51173 -26.69,41.19533 h -38.62 V 3.04297 h -18.02 V 100.406 h 66.71 c 9.98,0 17.86,-2.4177 23.64,-7.2497 5.77,-4.8438 8.65,-11.7071 8.65,-20.6016 0,-6.5508 -1.95,-12.3633 -5.84,-17.4375 -3.91,-5.0703 -9.37,-8.4649 -16.39,-10.1797 l 26.68,-41.89453 h -20.12"
         style="fill:#001F49;fill-opacity:1;fill-rule:nonzero;stroke:none"
         id="path60" /><path
         d="M 3426.09,3.04297 V 100.641 h 91.75 V 83.5547 h -73.73 v -20.125 h 48.45 V 46.3438 h -48.45 V 19.8945 h 77.7 V 3.04297 h -95.72"
         style="fill:#001F49;fill-opacity:1;fill-rule:nonzero;stroke:none"
         id="path62" /><path
         d="M 3586.65,3.04297 V 100.641 h 91.75 V 83.5547 h -73.73 v -20.125 h 48.45 V 46.3438 h -48.45 V 19.8945 h 77.7 V 3.04297 h -95.72"
         style="fill:#001F49;fill-opacity:1;fill-rule:nonzero;stroke:none"
         id="path64" /><path
         d="M 3791.68,84.0273 V 3.04297 h -18.03 V 84.0273 h -39.78 v 16.6137 h 97.6 V 84.0273 h -39.79"
         style="fill:#001F49;fill-opacity:1;fill-rule:nonzero;stroke:none"
         id="path66" /><path
         d="M 4003.49,3.04297 V 100.641 h 18.02 V 19.8945 h 69.75 V 3.04297 h -87.77"
         style="fill:#001F49;fill-opacity:1;fill-rule:nonzero;stroke:none"
         id="path68" /><path
         d="m 4201.97,86.1328 c -6.4,0 -12.1,-0.9023 -17.09,-2.6914 -5,-1.793 -9.28,-4.2539 -12.87,-7.375 -3.59,-3.1211 -6.32,-6.75 -8.19,-10.8828 -1.87,-4.1367 -2.81,-8.6211 -2.81,-13.457 0,-4.836 0.94,-9.3282 2.81,-13.461 1.87,-4.1328 4.6,-7.7617 8.19,-10.8789 3.59,-3.125 7.87,-5.582 12.87,-7.3711 4.99,-1.8008 10.69,-2.6953 17.09,-2.6953 6.4,0 12.17,0.8945 17.32,2.6953 5.14,1.7891 9.48,4.2461 12.99,7.3711 3.51,3.1172 6.2,6.7852 8.08,11 1.86,4.211 2.8,8.6602 2.8,13.3399 0,4.6836 -0.94,9.1289 -2.8,13.3398 -1.88,4.2149 -4.61,7.8789 -8.2,11 -3.59,3.1211 -7.92,5.582 -12.99,7.375 -5.07,1.7891 -10.8,2.6914 -17.2,2.6914 z M 4201.97,0 c -8.9,0 -17.01,1.32813 -24.35,3.98047 -7.33,2.64844 -13.6,6.32033 -18.83,11.00003 -5.23,4.6797 -9.29,10.1367 -12.17,16.3789 -2.9,6.2461 -4.34,13.0312 -4.34,20.3672 0,7.3281 1.44,14.1211 4.34,20.3632 2.88,6.2383 6.94,11.6602 12.17,16.2657 5.23,4.6015 11.5,8.2304 18.83,10.8828 7.34,2.6527 15.45,3.9807 24.35,3.9807 8.89,0 17.04,-1.285 24.45,-3.8635 7.41,-2.5742 13.74,-6.168 18.97,-10.7657 5.22,-4.6054 9.27,-10.0625 12.17,-16.3867 2.88,-6.3164 4.32,-13.1484 4.32,-20.4765 0,-7.336 -1.44,-14.1602 -4.32,-20.4805 -2.9,-6.3164 -6.95,-11.7852 -12.17,-16.3828 -5.23,-4.6055 -11.56,-8.23439 -18.97,-10.88283 C 4219.01,1.32813 4210.86,0 4201.97,0"
         style="fill:#001F49;fill-opacity:1;fill-rule:nonzero;stroke:none"
         id="path70" /><path
         d="M 4402.08,3.04297 4344.97,66.2383 V 3.04297 h -17.79 V 100.641 h 10.06 l 57.12,-63.4262 v 63.4262 h 17.79 V 3.04297 h -10.07"
         style="fill:#001F49;fill-opacity:1;fill-rule:nonzero;stroke:none"
         id="path72" /><path
         d="m 4527.99,83.7891 h -25.74 V 19.8945 h 25.74 c 11.24,0 19.74,2.961 25.52,8.8946 5.77,5.9297 8.65,13.5781 8.65,22.9375 0,9.207 -3.03,16.8515 -9.12,22.9414 -6.09,6.0781 -14.44,9.1211 -25.05,9.1211 z m -0.23,-80.74613 h -43.54 V 100.641 h 43.54 c 8.11,0 15.45,-1.2465 22,-3.7426 6.56,-2.5 12.09,-5.9336 16.62,-10.3007 4.53,-4.3672 8.03,-9.5547 10.54,-15.5625 2.48,-6.0079 3.74,-12.5235 3.74,-19.5469 0,-7.0156 -1.17,-13.4922 -3.52,-19.4219 -2.34,-5.9336 -5.77,-11.043 -10.29,-15.332 -4.53,-4.293 -10.07,-7.64456 -16.62,-10.06252 -6.55,-2.42579 -14.05,-3.62891 -22.47,-3.62891"
         style="fill:#001F49;fill-opacity:1;fill-rule:nonzero;stroke:none"
         id="path74" /><path
         d="m 4701.43,86.1328 c -6.4,0 -12.1,-0.9023 -17.09,-2.6914 -5,-1.793 -9.28,-4.2539 -12.87,-7.375 -3.59,-3.1211 -6.32,-6.75 -8.19,-10.8828 -1.87,-4.1367 -2.81,-8.6211 -2.81,-13.457 0,-4.836 0.94,-9.3282 2.81,-13.461 1.87,-4.1328 4.6,-7.7617 8.19,-10.8789 3.59,-3.125 7.87,-5.582 12.87,-7.3711 4.99,-1.8008 10.69,-2.6953 17.09,-2.6953 6.4,0 12.17,0.8945 17.32,2.6953 5.15,1.7891 9.48,4.2461 12.99,7.3711 3.51,3.1172 6.2,6.7852 8.08,11 1.87,4.211 2.8,8.6602 2.8,13.3399 0,4.6836 -0.93,9.1289 -2.8,13.3398 -1.88,4.2149 -4.61,7.8789 -8.2,11 -3.59,3.1211 -7.92,5.582 -12.99,7.375 -5.07,1.7891 -10.8,2.6914 -17.2,2.6914 z M 4701.43,0 c -8.9,0 -17.01,1.32813 -24.34,3.98047 -7.34,2.64844 -13.61,6.32033 -18.84,11.00003 -5.23,4.6797 -9.29,10.1367 -12.17,16.3789 -2.9,6.2461 -4.34,13.0312 -4.34,20.3672 0,7.3281 1.44,14.1211 4.34,20.3632 2.88,6.2383 6.94,11.6602 12.17,16.2657 5.23,4.6015 11.5,8.2304 18.84,10.8828 7.33,2.6527 15.44,3.9807 24.34,3.9807 8.89,0 17.05,-1.285 24.46,-3.8635 7.41,-2.5742 13.73,-6.168 18.96,-10.7657 5.23,-4.6054 9.27,-10.0625 12.17,-16.3867 2.88,-6.3164 4.32,-13.1484 4.32,-20.4765 0,-7.336 -1.44,-14.1602 -4.32,-20.4805 -2.9,-6.3164 -6.94,-11.7852 -12.17,-16.3828 C 4739.62,10.2578 4733.3,6.62891 4725.89,3.98047 4718.48,1.32813 4710.32,0 4701.43,0"
         style="fill:#001F49;fill-opacity:1;fill-rule:nonzero;stroke:none"
         id="path76" /><path
         d="M 4901.54,3.04297 4844.43,66.2383 V 3.04297 h -17.79 V 100.641 h 10.06 l 57.12,-63.4262 v 63.4262 h 17.79 V 3.04297 h -10.07"
         style="fill:#001F49;fill-opacity:1;fill-rule:nonzero;stroke:none"
         id="path78" /><path
         d="m 3474.53,348.309 c -28.97,16.269 -95.38,12.699 -168.27,-2.465 l -66.24,-12.703 c -113.59,-19.512 -213.65,-22.078 -288.18,32.425 l 1.38,3.399 c 50.58,-37.004 139.05,-35.086 233.45,-21.774 l 96.14,16.329 c 81.27,12.554 151.33,11.64 192.85,-13.864 l -1.13,-1.347 v 0"
         style="fill:#001F49;fill-opacity:1;fill-rule:nonzero;stroke:none"
         id="path80" /><path
         d="m 3344.05,341.16 c 28.93,-16.289 95.4,-12.683 168.28,2.488 l 66.21,12.7 c 113.58,19.515 213.69,22.113 288.22,-32.418 l -1.37,-3.418 c -50.57,37.047 -139.06,35.051 -233.47,21.746 l -96.1,-16.305 c -81.3,-12.551 -151.36,-11.652 -192.86,13.875 l 1.09,1.332 v 0"
         style="fill:#001F49;fill-opacity:1;fill-rule:nonzero;stroke:none"
         id="path82" /></g></g></svg>
